<svg width="112" height="39" viewBox="0 0 112 39" fill="none" xmlns="http://www.w3.org/2000/svg">
<path d="M49.7845 31.32C48.3551 31.32 47.0325 31.0427 45.8165 30.488C44.6218 29.9333 43.6405 29.1333 42.8725 28.088L45.2405 25.24C45.8591 26.0933 46.5311 26.7333 47.2565 27.16C48.0031 27.5867 48.8138 27.8 49.6885 27.8C52.0138 27.8 53.1765 26.424 53.1765 23.672V12.088H45.2085V8.6H57.3365V23.448C57.3365 26.0933 56.6858 28.0667 55.3845 29.368C54.1045 30.6693 52.2378 31.32 49.7845 31.32ZM70.4675 31.224C68.7181 31.224 67.1608 30.8507 65.7955 30.104C64.4301 29.336 63.3528 28.2907 62.5635 26.968C61.7741 25.6453 61.3795 24.1413 61.3795 22.456C61.3795 20.7493 61.7741 19.2453 62.5635 17.944C63.3528 16.6213 64.4301 15.5867 65.7955 14.84C67.1608 14.0933 68.7181 13.72 70.4675 13.72C72.2381 13.72 73.8061 14.0933 75.1715 14.84C76.5581 15.5867 77.6355 16.6107 78.4035 17.912C79.1928 19.2133 79.5875 20.728 79.5875 22.456C79.5875 24.1413 79.1928 25.6453 78.4035 26.968C77.6355 28.2907 76.5581 29.336 75.1715 30.104C73.8061 30.8507 72.2381 31.224 70.4675 31.224ZM70.4675 27.8C71.4488 27.8 72.3235 27.5867 73.0915 27.16C73.8595 26.7333 74.4568 26.1147 74.8835 25.304C75.3315 24.4933 75.5555 23.544 75.5555 22.456C75.5555 21.3467 75.3315 20.3973 74.8835 19.608C74.4568 18.7973 73.8595 18.1787 73.0915 17.752C72.3235 17.3253 71.4595 17.112 70.4995 17.112C69.5181 17.112 68.6435 17.3253 67.8755 17.752C67.1288 18.1787 66.5315 18.7973 66.0835 19.608C65.6355 20.3973 65.4115 21.3467 65.4115 22.456C65.4115 23.544 65.6355 24.4933 66.0835 25.304C66.5315 26.1147 67.1288 26.7333 67.8755 27.16C68.6435 27.5867 69.5075 27.8 70.4675 27.8ZM81.6525 37.432C80.9058 37.432 80.2018 37.3467 79.5405 37.176C78.8578 37.0267 78.2818 36.7813 77.8125 36.44L78.9645 33.464C79.5831 33.912 80.3618 34.136 81.3005 34.136C82.0258 34.136 82.5911 33.9013 82.9965 33.432C83.4018 32.984 83.6045 32.312 83.6045 31.416V13.912H87.6045V31.32C87.6045 33.1973 87.0818 34.68 86.0365 35.768C85.0125 36.8773 83.5511 37.432 81.6525 37.432ZM85.5885 11.096C84.8418 11.096 84.2231 10.8613 83.7325 10.392C83.2631 9.92267 83.0285 9.35733 83.0285 8.696C83.0285 8.01333 83.2631 7.448 83.7325 7C84.2231 6.53067 84.8418 6.296 85.5885 6.296C86.3351 6.296 86.9431 6.52 87.4125 6.968C87.9031 7.39467 88.1485 7.93867 88.1485 8.6C88.1485 9.304 87.9138 9.90133 87.4445 10.392C86.9751 10.8613 86.3565 11.096 85.5885 11.096ZM100.53 31.224C98.7806 31.224 97.2233 30.8507 95.858 30.104C94.4926 29.336 93.4153 28.2907 92.626 26.968C91.8366 25.6453 91.442 24.1413 91.442 22.456C91.442 20.7493 91.8366 19.2453 92.626 17.944C93.4153 16.6213 94.4926 15.5867 95.858 14.84C97.2233 14.0933 98.7806 13.72 100.53 13.72C102.301 13.72 103.869 14.0933 105.234 14.84C106.621 15.5867 107.698 16.6107 108.466 17.912C109.255 19.2133 109.65 20.728 109.65 22.456C109.65 24.1413 109.255 25.6453 108.466 26.968C107.698 28.2907 106.621 29.336 105.234 30.104C103.869 30.8507 102.301 31.224 100.53 31.224ZM100.53 27.8C101.511 27.8 102.386 27.5867 103.154 27.16C103.922 26.7333 104.519 26.1147 104.946 25.304C105.394 24.4933 105.618 23.544 105.618 22.456C105.618 21.3467 105.394 20.3973 104.946 19.608C104.519 18.7973 103.922 18.1787 103.154 17.752C102.386 17.3253 101.522 17.112 100.562 17.112C99.5806 17.112 98.706 17.3253 97.938 17.752C97.1913 18.1787 96.594 18.7973 96.146 19.608C95.698 20.3973 95.474 21.3467 95.474 22.456C95.474 23.544 95.698 24.4933 96.146 25.304C96.594 26.1147 97.1913 26.7333 97.938 27.16C98.706 27.5867 99.57 27.8 100.53 27.8Z" fill="#7F00FF"/>
<path d="M30.6585 22.8569C30.3161 22.982 30.0521 23.2641 29.952 23.6145C29.34 25.7634 28.125 27.6848 26.438 29.1762M30.6585 22.8569L26.2432 28.9559L26.438 29.1762M30.6585 22.8569L33.0133 22.0025L30.6585 22.8569ZM26.438 29.1762L26.2435 28.9556M26.438 29.1762L26.2435 28.9556M26.2435 28.9556C27.8888 27.5011 29.0728 25.6282 29.6692 23.534L29.6693 23.5337M26.2435 28.9556L29.6693 23.5337M29.6693 23.5337C29.7954 23.0922 30.1274 22.7379 30.5575 22.5807L30.5582 22.5804M29.6693 23.5337L30.5582 22.5804M30.5582 22.5804L32.7192 21.7964V20.2951L30.8676 19.6227C30.3819 19.4464 30.03 19.0225 29.9442 18.5135L29.9441 18.5131M30.5582 22.5804L29.9441 18.5131M29.9441 18.5131C29.4718 15.6867 27.9573 13.1585 25.6822 11.3947L25.6821 11.3947M29.9441 18.5131L25.6821 11.3947M25.6821 11.3947C25.3317 11.1229 25.1269 10.705 25.1269 10.2624V9.94947M25.6821 11.3947L25.1269 9.94947M25.1269 9.94947C24.7001 10.2895 24.1128 10.3584 23.6155 10.1219L23.6149 10.1216C22.0566 9.37577 20.4061 8.99801 18.7079 8.99801C12.4179 8.99801 7.2995 14.1164 7.2995 20.4076C7.2995 23.6661 8.70984 26.7826 11.1725 28.9546L11.173 28.9551C11.4291 29.1821 11.5872 29.4841 11.6387 29.8031L13.0883 33.7944H14.5885L15.0437 32.54L15.0437 32.5399C15.283 31.881 15.9581 31.4965 16.646 31.6193L16.6471 31.6195C18.0968 31.8839 19.3192 31.8839 20.7665 31.6195L20.7671 31.6194C21.4559 31.4951 22.1308 31.8826 22.3687 32.5387C22.3687 32.5388 22.3688 32.5389 22.3688 32.5389L22.8251 33.7944H24.3264L25.7904 29.7628L25.1269 9.94947ZM20.4769 35.7153L20.4771 35.7158C20.6831 36.2811 21.22 36.6577 21.8227 36.6577H25.33C25.9321 36.6577 26.4707 36.2815 26.6757 35.7154L20.4769 35.7153ZM20.4769 35.7153L20.0756 34.6084L20.4769 35.7153ZM28.4547 30.813L26.6758 35.7152L15.5921 36.3636H12.0848C11.6059 36.3636 11.1793 36.0644 11.0166 35.6151L10.7402 35.7156L10.7402 35.7154C10.7402 35.7154 10.7401 35.7153 10.7401 35.7152L8.95785 30.8118C6.07871 28.1126 4.43615 24.3455 4.43615 20.4076C4.43615 12.538 10.8371 6.13466 18.7079 6.13466C20.5109 6.13466 22.2698 6.47325 23.9477 7.14267L24.9446 6.21874L24.945 6.21841C25.2816 5.90747 25.7177 5.73422 26.1741 5.73422C27.1756 5.73422 27.9902 6.54689 27.9902 7.54814V9.58371C30.3126 11.5742 31.9232 14.237 32.6043 17.2069L34.6403 17.947C34.6404 17.947 34.6404 17.947 34.6405 17.947C35.205 18.152 35.5826 18.6903 35.5826 19.2928V22.8C35.5826 23.4017 35.2046 23.9399 34.639 24.1447L32.2002 25.0302C31.447 27.2305 30.1654 29.2119 28.4547 30.813Z" fill="#7F00FF" stroke="#7F00FF" stroke-width="0.588141"/>
<path d="M2.71433 23.3188C1.21839 23.3188 0 22.1005 0 20.6045C0 19.9766 0.509646 19.4669 1.1376 19.4669C1.7667 19.4669 2.27521 19.9766 2.27521 20.6045C2.27521 20.8469 2.47202 21.0436 2.71433 21.0436C2.95664 21.0436 3.15343 20.8469 3.15343 20.6045C3.15343 19.9766 3.66194 19.4669 4.29104 19.4669C4.92013 19.4669 5.42864 19.9766 5.42864 20.6045C5.42864 22.1005 4.21028 23.3188 2.71433 23.3188Z" fill="#7F00FF"/>
<path d="M4.29109 23.3188C2.794 23.3188 1.57678 22.1005 1.57678 20.6045C1.57678 19.9766 2.08529 19.4669 2.71439 19.4669C3.34348 19.4669 3.85199 19.9766 3.85199 20.6045C3.85199 20.8469 4.04878 21.0436 4.29109 21.0436C4.5334 21.0436 4.73022 20.8469 4.73022 20.6045C4.73022 19.9766 5.23873 19.4669 5.86782 19.4669C6.49578 19.4669 7.00542 19.9766 7.00542 20.6045C7.00542 22.1005 5.78704 23.3188 4.29109 23.3188Z" fill="#7F00FF"/>
<path d="M4.29109 21.7422C3.98507 21.7422 3.70751 21.6205 3.50274 21.4248C3.29797 21.6205 3.0204 21.7422 2.71439 21.7422C2.08529 21.7422 1.57678 21.2325 1.57678 20.6046C1.57678 19.5421 2.44021 18.6786 3.5016 18.6786C4.56412 18.6786 5.42869 19.5421 5.42869 20.6046C5.42869 21.2325 4.92018 21.7422 4.29109 21.7422Z" fill="#7F00FF"/>
<path d="M27.4971 18.5808H27.4368C26.8088 18.5808 26.2992 18.0712 26.2992 17.4432C26.2992 16.8152 26.8088 16.3056 27.4368 16.3056C28.0659 16.3056 28.6051 16.8152 28.6051 17.4432C28.6051 18.0712 28.1262 18.5808 27.4971 18.5808Z" fill="#7F00FF"/>
<path d="M21.3677 6.96345C21.3677 8.52424 20.1027 9.79041 18.5419 9.79041C16.98 9.79041 15.715 8.52424 15.715 6.96345C15.715 5.40266 16.98 4.13766 18.5419 4.13766C20.1027 4.13766 21.3677 5.40266 21.3677 6.96345Z" fill="white"/>
<path d="M18.5407 5.27523C17.6101 5.27523 16.8525 6.03286 16.8525 6.96342C16.8525 7.89398 17.6101 8.65277 18.5407 8.65277C19.4724 8.65277 20.23 7.89398 20.23 6.96342C20.23 6.03286 19.4724 5.27523 18.5407 5.27523ZM18.5407 10.928C16.3553 10.928 14.5773 9.14989 14.5773 6.96342C14.5773 4.77808 16.3553 3.00003 18.5407 3.00003C20.726 3.00003 22.5052 4.77808 22.5052 6.96342C22.5052 9.14989 20.726 10.928 18.5407 10.928Z" fill="#7F00FF"/>
<path d="M14.7695 12.0748C14.2883 12.0748 13.8412 11.7677 13.6865 11.2842C13.4942 10.6869 13.823 10.0465 14.4202 9.85309C17.0584 9.00557 19.957 8.95892 22.6372 9.75524C23.2401 9.93384 23.5836 10.5675 23.405 11.1693C23.2253 11.7711 22.5962 12.1158 21.9899 11.936C19.7454 11.2705 17.3212 11.3104 15.1176 12.0191C15.0016 12.0566 14.8844 12.0748 14.7695 12.0748Z" fill="#7F00FF"/>
</svg>
