<svg width="304" height="337" viewBox="0 0 304 337" fill="none" xmlns="http://www.w3.org/2000/svg">
<path d="M233.696 336.066H69.6983C31.6173 336.066 0.746094 305.245 0.746094 267.227V103.499C0.746094 65.4821 31.6173 34.6604 69.6983 34.6604H233.696C271.778 34.6604 302.649 65.4821 302.649 103.499V267.227C302.649 305.245 271.778 336.066 233.696 336.066Z" fill="white"/>
<path d="M233.696 336.066V335.321H69.6986C50.8618 335.321 33.8148 327.701 21.47 315.376C9.12507 303.052 1.49273 286.033 1.49273 267.227V103.499C1.49273 84.6934 9.12507 67.676 21.47 55.35C33.8148 43.0269 50.8618 35.4072 69.6986 35.4057H233.696C252.534 35.4072 269.581 43.0269 281.926 55.35C294.269 67.676 301.902 84.6934 301.903 103.499V267.227C301.902 286.033 294.269 303.052 281.926 315.376C269.581 327.701 252.534 335.321 233.696 335.321V336.066V336.811C272.19 336.811 303.394 305.657 303.396 267.227V103.499C303.394 65.0695 272.19 33.917 233.696 33.9155H69.6986C31.2056 33.917 0 65.0695 0 103.499V267.227C0 305.657 31.2056 336.811 69.6986 336.811H233.696V336.066Z" fill="#AEAEAE"/>
<path d="M93.2254 167.366C88.6472 159.822 66.6697 159.946 64.6799 163.298C64.6799 163.298 75.5694 198.441 87.7053 194.797C99.8412 191.155 93.2254 167.366 93.2254 167.366Z" fill="#73CD91"/>
<path d="M93.2254 167.366L93.8628 166.98C92.3223 164.47 89.2622 162.879 85.7274 161.841C82.1852 160.812 78.1235 160.365 74.4797 160.363C71.9898 160.365 69.7 160.572 67.8893 160.965C66.9817 161.162 66.1951 161.403 65.5472 161.707C64.9024 162.014 64.3724 162.369 64.0381 162.917C63.9306 163.098 63.9037 163.317 63.9664 163.518C63.9739 163.537 66.4399 171.503 70.3553 179.507C72.3153 183.51 74.6335 187.525 77.2234 190.581C78.5205 192.109 79.8864 193.401 81.3329 194.326C82.7778 195.249 84.3183 195.808 85.9215 195.808C86.5843 195.808 87.253 195.712 87.9188 195.511C91.058 194.578 93.0747 192.337 94.2285 189.62C95.3929 186.9 95.769 183.686 95.772 180.549C95.769 173.71 93.9524 167.202 93.9449 167.168L93.8628 166.98L93.2254 167.366L92.5059 167.566C92.5059 167.566 92.5313 167.658 92.5806 167.844C92.9179 169.141 94.2808 174.79 94.2793 180.549C94.2808 183.564 93.9016 186.604 92.8567 189.034C91.8014 191.469 90.1579 193.276 87.4904 194.085C86.9604 194.243 86.4395 194.317 85.9215 194.317C84.6736 194.317 83.4137 193.884 82.1374 193.07C79.9073 191.651 77.6906 189.064 75.6799 185.976C72.6571 181.345 70.0747 175.607 68.2595 171.038C67.3519 168.753 66.6339 166.759 66.1428 165.339C65.898 164.628 65.7099 164.062 65.5831 163.673C65.4562 163.284 65.3935 163.077 65.392 163.077L64.6799 163.297L65.3218 163.677C65.3905 163.545 65.6756 163.287 66.1801 163.056C66.931 162.701 68.1162 162.388 69.5507 162.18C70.9868 161.968 72.6765 161.853 74.4797 161.853C77.9996 161.852 81.9508 162.293 85.3095 163.272C88.6771 164.242 91.4088 165.78 92.5865 167.752L93.2254 167.366Z" fill="#1D2A30"/>
<path d="M67.0042 185.249C67.0042 185.249 64.6785 187.899 64.6785 191.879C64.6785 195.156 70.942 260.627 90.2728 283.417C94.3241 288.201 98.953 291.103 104.222 291.165C120.586 291.341 128.509 278.382 138.924 248.321C140.218 244.579 141.565 240.562 142.96 236.267C153.085 205.238 165.524 140.521 165.524 140.521C165.524 140.521 143.451 145.632 130.359 158.591C124.635 164.254 118.674 180.327 114.863 192.131C112.989 197.931 111.631 202.689 111.064 204.698C110.889 205.365 110.787 205.728 110.787 205.728C110.284 203.783 109.454 201.798 108.474 199.865L108.448 199.815L108.372 199.664C104.424 192.092 97.9962 185.411 97.9962 185.411L93.2299 167.367C93.2299 167.367 91.5446 170.658 83.9212 171.825C76.2874 172.993 64.6785 163.299 64.6785 163.299L67.0042 185.249Z" fill="#8D67B4"/>
<mask id="mask0_313_1503" style="mask-type:luminance" maskUnits="userSpaceOnUse" x="91" y="184" width="33" height="107">
<path d="M104.549 290.421L104.23 290.42H104.231C99.3397 290.36 94.9824 287.725 91.061 283.191C99.3382 280.703 108.696 274.446 114.485 259.71C123.371 237.085 116.206 215.805 111.558 205.744C111.604 205.574 111.682 205.285 111.785 204.892C112.352 202.883 113.706 198.138 115.573 192.359C115.712 191.927 115.854 191.49 115.999 191.047C118.677 188.569 121.369 186.557 123.922 184.928C122.193 206.336 121.55 237.272 121.549 267.251C121.549 272.41 121.568 277.541 121.604 282.589C119.517 284.951 117.317 286.742 114.925 288.013C111.87 289.635 108.487 290.42 104.549 290.421Z" fill="white"/>
</mask>
<g mask="url(#mask0_313_1503)">
<path d="M91.061 290.421H123.922V184.928H91.061V290.421Z" fill="#8D67B4"/>
</g>
<path d="M67.0039 185.249L66.4427 184.757C66.3919 184.826 63.9423 187.598 63.9319 191.879C63.9334 192.365 64.0319 193.724 64.2424 195.889C64.9768 203.436 67.0726 220.372 71.1075 237.946C75.1542 255.524 81.0894 273.722 89.7039 283.899H89.7024C93.8268 288.776 98.6573 291.843 104.213 291.909L104.215 291.91L104.549 291.912C108.684 291.913 112.34 291.076 115.627 289.329C120.56 286.706 124.617 282.088 128.409 275.365C132.2 268.637 135.743 259.78 139.63 248.564C140.925 244.818 142.272 240.794 143.671 236.496C153.823 205.376 166.253 140.678 166.257 140.662C166.305 140.414 166.224 140.159 166.042 139.985C165.86 139.811 165.602 139.739 165.355 139.796C165.302 139.823 143.159 144.903 129.833 158.062C126.83 161.047 123.914 166.522 121.208 172.762C118.511 178.999 116.063 185.985 114.152 191.901C112.274 197.715 110.913 202.484 110.345 204.496L110.341 204.509C110.168 205.172 110.069 205.53 110.068 205.53L110.787 205.728L111.511 205.542C110.989 203.524 110.136 201.493 109.139 199.529L108.473 199.865L109.144 199.539L109.12 199.488L109.114 199.478L109.039 199.329L109.035 199.32C105.015 191.623 98.5573 184.924 98.5349 184.896L97.996 185.411L98.717 185.222L93.9507 167.178C93.8716 166.88 93.6163 166.659 93.3088 166.626C93.0028 166.594 92.7058 166.755 92.564 167.029L92.5625 167.03C92.446 167.208 90.7756 170.009 83.8091 171.088C83.4165 171.149 83.0075 171.178 82.585 171.178C79.0726 171.193 74.6497 169.108 71.1791 166.975C69.4386 165.913 67.9294 164.847 66.8562 164.05C66.3203 163.65 65.8933 163.318 65.6007 163.087C65.3097 162.855 65.1574 162.728 65.1574 162.728C64.9231 162.533 64.5947 162.498 64.3275 162.642C64.0588 162.785 63.9035 163.075 63.9364 163.378L66.2621 185.326L67.0039 185.249L67.7473 185.17L65.4201 163.221L64.6783 163.299L64.1991 163.871C64.217 163.886 66.8203 166.06 70.3999 168.246C73.9869 170.427 78.5173 172.653 82.585 172.668C83.0747 172.668 83.5598 172.634 84.0345 172.562C91.8504 171.38 93.8104 167.904 93.894 167.707L93.2297 167.367L92.5072 167.558L97.275 185.602L97.4571 185.928C97.4586 185.928 97.5526 186.027 97.7333 186.221C98.9946 187.575 104.316 193.495 107.711 200.008L108.372 199.664L107.706 200L107.779 200.144L107.802 200.19L107.808 200.202C108.772 202.102 109.581 204.043 110.065 205.914C110.15 206.242 110.444 206.472 110.781 206.473C111.12 206.476 111.417 206.253 111.507 205.928C111.508 205.925 111.61 205.557 111.786 204.888L111.063 204.698L111.781 204.901C112.347 202.897 113.704 198.147 115.573 192.359C117.473 186.471 119.911 179.52 122.578 173.354C125.237 167.191 128.164 161.798 130.884 159.12C137.315 152.751 146.029 148.26 153.132 145.387C156.683 143.949 159.829 142.912 162.086 142.237C163.213 141.898 164.118 141.65 164.74 141.487C165.361 141.325 165.693 141.249 165.693 141.247L165.524 140.521L164.791 140.381C164.791 140.384 164.597 141.39 164.237 143.219C161.724 156.016 151.085 208.971 142.251 236.036C140.855 240.328 139.512 244.341 138.218 248.077C133.057 262.984 128.504 273.643 123.316 280.492C120.721 283.918 117.981 286.39 114.925 288.013C111.869 289.635 108.487 290.42 104.549 290.422L104.23 290.42H104.231C99.2484 290.36 94.821 287.627 90.8428 282.937V282.936C86.1064 277.358 82.1089 269.06 78.8219 259.713C73.8884 245.693 70.5313 229.319 68.4161 216.156C67.3577 209.573 66.6083 203.792 66.1247 199.506C65.8829 197.363 65.7068 195.596 65.5918 194.289C65.4769 192.989 65.4231 192.121 65.4246 191.879C65.4231 190.036 65.965 188.489 66.5083 187.404C66.78 186.863 67.0517 186.438 67.2517 186.152C67.3517 186.01 67.4338 185.903 67.4891 185.833L67.5518 185.757L67.5652 185.739C67.7025 185.584 67.7682 185.377 67.7473 185.17L67.0039 185.249Z" fill="#1D2A30"/>
<path d="M118.311 227.197C118.769 229.597 119.051 232.07 119.051 234.522C119.051 238.243 118.403 241.906 116.754 245.218C116.57 245.586 116.721 246.033 117.09 246.216C117.458 246.399 117.908 246.249 118.091 245.881C119.866 242.313 120.544 238.413 120.544 234.522C120.544 231.956 120.25 229.392 119.777 226.917C119.699 226.513 119.308 226.248 118.903 226.325C118.499 226.403 118.233 226.793 118.311 227.197Z" fill="#1D2A30"/>
<path d="M110.145 206.105C113.341 211.491 115.833 217.428 117.452 223.47C117.558 223.868 117.967 224.103 118.366 223.997C118.764 223.892 119 223.482 118.894 223.085C117.239 216.91 114.698 210.853 111.431 205.347C111.22 204.992 110.762 204.876 110.408 205.084C110.053 205.295 109.935 205.752 110.145 206.105Z" fill="#1D2A30"/>
<path d="M121.919 213.199C121.901 213.153 121.301 211.511 119.88 209.664C118.462 207.822 116.193 205.755 112.859 205C112.458 204.909 112.058 205.161 111.967 205.562C111.876 205.962 112.128 206.362 112.53 206.453C115.417 207.105 117.409 208.903 118.698 210.572C119.339 211.405 119.799 212.201 120.095 212.782C120.243 213.073 120.35 213.311 120.42 213.472L120.495 213.655L120.516 213.709C120.656 214.095 121.084 214.295 121.473 214.154C121.859 214.014 122.059 213.587 121.919 213.199Z" fill="#1D2A30"/>
<path d="M89.8071 191.013C91.3595 190.177 92.8045 189.149 94.1166 187.987C94.4256 187.714 94.4539 187.243 94.1793 186.935C93.9061 186.628 93.4344 186.599 93.1269 186.872C91.8939 187.964 90.5415 188.926 89.098 189.702C88.7353 189.897 88.5995 190.349 88.795 190.711C88.9905 191.073 89.4443 191.209 89.8071 191.013Z" fill="#1D2A30"/>
<path d="M66.4564 185.759C70.3987 189.958 76.0517 193.039 81.9316 193.046C83.5482 193.046 85.1783 192.811 86.7829 192.297C87.1755 192.171 87.392 191.753 87.2666 191.361C87.1412 190.969 86.7217 190.753 86.3292 190.878C84.8767 191.341 83.4034 191.556 81.9316 191.556C76.5906 191.563 71.2496 188.699 67.5476 184.741C67.2655 184.44 66.7938 184.425 66.4923 184.705C66.1907 184.987 66.1758 185.458 66.4564 185.759Z" fill="#1D2A30"/>
<path d="M108.359 199.677L108.448 199.815L108.372 199.665L108.359 199.677Z" fill="#73CD91"/>
<path d="M108.359 199.676L107.732 200.079L107.82 200.217C108.035 200.55 108.475 200.658 108.819 200.462C109.163 200.265 109.293 199.831 109.114 199.478L109.04 199.329C108.935 199.122 108.74 198.976 108.513 198.933C108.284 198.889 108.05 198.953 107.877 199.107L107.863 199.119C107.589 199.363 107.533 199.77 107.732 200.079L108.359 199.676L108.856 200.234L108.868 200.222L108.372 199.664L107.707 200L107.783 200.15L108.448 199.815L109.077 199.412L108.987 199.274L108.359 199.676Z" fill="#1D2A30"/>
<path d="M252.528 333.146C252.528 333.146 255.311 311.212 257.006 304.05C264.649 271.804 291.566 197.095 287.225 174.987C282.763 152.268 255.481 132.389 211.448 130.203C170.609 128.17 136.939 142.621 128.888 159.423C121.205 175.458 121.519 286.128 123.47 336.066C123.47 336.066 207.607 336.066 235.654 336.066C244.511 336.066 252.528 333.146 252.528 333.146Z" fill="#8D67B4"/>
<path d="M186.564 335.32C175.797 329.926 166.357 319.778 166.357 319.778C166.357 319.778 166.708 314.828 158.84 304.049C150.969 293.272 136.542 193.709 136.542 193.709L199.541 272.096C199.541 272.096 222.603 228.774 243.757 199.825L273.944 225.955C261.438 277.736 224.722 323.276 207.334 335.32C206.988 335.32 206.64 335.32 206.292 335.32C199.98 335.32 193.292 335.32 186.564 335.32Z" fill="#845CAD"/>
<path d="M252.528 333.146L253.269 333.239C253.269 333.236 253.442 331.871 253.728 329.704C254.588 323.214 256.478 309.511 257.733 304.222C261.259 289.342 268.932 265.296 275.722 241.581C282.513 217.85 288.433 194.49 288.442 180.707C288.442 178.504 288.29 176.542 287.957 174.844C285.677 163.236 277.585 152.428 264.573 144.264C251.556 136.099 233.606 130.558 211.486 129.46C208.884 129.33 206.31 129.267 203.771 129.267C185.014 129.267 168.09 132.699 154.874 138.127C141.663 143.563 132.128 150.967 128.215 159.101C126.897 161.874 125.883 166.953 125.022 173.874C122.461 194.599 121.55 231.604 121.549 267.251C121.549 293.212 122.034 318.44 122.723 336.096C122.738 336.495 123.068 336.811 123.47 336.811C123.473 336.811 124.783 336.811 127.139 336.811C143.628 336.811 211.112 336.811 235.654 336.811C244.672 336.808 252.739 333.859 252.783 333.845C253.045 333.75 253.233 333.515 253.269 333.239L252.528 333.146L252.271 332.446C252.271 332.446 252.157 332.488 251.927 332.565C250.314 333.112 243.263 335.324 235.654 335.321C221.63 335.321 193.585 335.321 169.044 335.321C156.774 335.321 145.38 335.321 137.054 335.321C132.89 335.321 129.494 335.321 127.139 335.321C124.783 335.321 123.473 335.321 123.47 335.321V336.066L124.215 336.038C123.526 318.409 123.041 293.192 123.041 267.251C123.041 243.507 123.447 219.151 124.474 199.45C124.986 189.599 125.655 180.913 126.503 174.057C127.343 167.211 128.396 162.158 129.562 159.745C133.189 152.144 142.429 144.842 155.443 139.505C168.45 134.161 185.197 130.756 203.771 130.758C206.285 130.758 208.834 130.82 211.411 130.948C233.323 132.035 251.03 137.526 263.779 145.526C276.531 153.529 284.311 164.019 286.492 175.13C286.8 176.698 286.949 178.574 286.949 180.707C286.958 194.115 281.074 217.494 274.288 241.172C267.503 264.864 259.832 288.894 256.281 303.879C255.418 307.523 254.302 314.789 253.392 321.18C252.483 327.564 251.788 333.05 251.788 333.053L252.528 333.146Z" fill="#1D2A30"/>
<path d="M229.228 134.631C229.228 134.631 207.27 144.036 183.506 136.242C183.506 136.242 186.566 128.819 186.581 122.694C186.597 119.624 185.82 116.868 183.506 115.555C183.506 115.555 184.581 114.378 186.403 112.515H186.417C195.419 103.366 222.75 77.6428 231.646 92.9777C231.646 92.9777 222.332 93.8584 229.228 134.631Z" fill="white"/>
<path d="M229.228 134.631L228.934 133.947L228.818 133.995C227.615 134.491 217.177 138.589 203.422 138.588C197.342 138.588 190.614 137.789 183.739 135.534L183.506 136.242L184.197 136.525C184.206 136.48 187.3 129.047 187.327 122.695V122.698V122.601C187.326 121.022 187.126 119.497 186.597 118.155C186.07 116.815 185.188 115.649 183.875 114.907L183.506 115.556L184.058 116.058C184.058 116.056 184.321 115.769 184.815 115.244C185.309 114.721 186.03 113.964 186.936 113.035L186.403 112.515V113.261H186.417C186.617 113.261 186.811 113.18 186.95 113.038C190.44 109.49 196.708 103.432 203.553 98.2833C206.976 95.7081 210.544 93.361 213.964 91.6695C217.382 89.9736 220.654 88.9468 223.442 88.9498C225.026 88.9513 226.45 89.2731 227.709 89.9721C228.966 90.6725 230.073 91.7544 231.002 93.352L231.647 92.9779L231.576 92.2373C231.375 92.2403 229.851 92.5353 228.521 94.8512C227.18 97.1626 225.941 101.425 225.938 109.551C225.94 115.569 226.625 123.71 228.492 134.756L229.228 134.631L229.964 134.507C228.106 123.521 227.431 115.456 227.431 109.551C227.428 101.574 228.671 97.5501 229.812 95.6008C230.381 94.6232 230.917 94.1582 231.272 93.9317C231.451 93.8185 231.587 93.7648 231.666 93.738L231.739 93.7171H231.741L231.673 93.2551L231.717 93.7201L231.741 93.7171L231.673 93.2551L231.717 93.7201C231.97 93.6963 232.194 93.5457 232.311 93.3192C232.427 93.0942 232.42 92.8244 232.293 92.6054C231.254 90.8126 229.945 89.5086 228.434 88.6696C226.924 87.8291 225.229 87.4595 223.442 87.4595C220.291 87.464 216.842 88.5846 213.301 90.3342C202.695 95.5904 191.176 106.623 185.885 111.994L186.417 112.515V111.77H186.403C186.2 111.77 186.011 111.851 185.869 111.995C184.039 113.866 182.96 115.049 182.955 115.053C182.801 115.222 182.734 115.45 182.769 115.673C182.804 115.897 182.94 116.092 183.137 116.204C184.115 116.761 184.77 117.602 185.208 118.701C185.644 119.8 185.836 121.148 185.835 122.601V122.691V122.692C185.83 125.634 185.079 128.974 184.321 131.555C183.943 132.847 183.566 133.953 183.284 134.732C183.142 135.121 183.024 135.43 182.942 135.64C182.861 135.85 182.816 135.957 182.816 135.957C182.737 136.15 182.742 136.364 182.828 136.553C182.915 136.741 183.076 136.884 183.273 136.95C190.325 139.261 197.212 140.078 203.422 140.078C218.41 140.075 229.466 135.339 229.522 135.316C229.84 135.181 230.022 134.847 229.964 134.507L229.228 134.631Z" fill="#1D2A30"/>
<path d="M204.404 106.226C204.404 106.226 200.792 119.447 186.581 122.694C186.597 119.624 185.82 116.868 183.506 115.555C183.506 115.555 184.581 114.378 186.403 112.515H186.417C195.121 109.104 204.404 106.226 204.404 106.226Z" fill="#1D2A30"/>
<path d="M237.831 71.3958C247.261 33.8768 226.948 21.0351 214.149 16.1187C193.645 8.24262 167.77 17.2021 161.708 38.0465C155.644 58.8894 161.108 63.6359 160.826 72.1632C160.627 78.1437 156.655 81.0885 161.034 96.097C163.923 105.998 169.291 117.356 175.547 117.719C192.485 118.701 208.518 109.073 207.627 104.553L237.831 71.3958Z" fill="white"/>
<path d="M238.555 71.5768C240.25 64.8304 240.995 58.8588 240.995 53.5699C241.001 41.3974 237.028 32.8313 231.7 26.8538C226.374 20.8734 219.737 17.4681 214.416 15.422C209.352 13.4772 203.973 12.5428 198.639 12.5428C190.313 12.5428 182.094 14.8199 175.351 19.1179C168.608 23.4158 163.341 29.7554 160.991 37.8386C158.791 45.3972 158.088 50.8919 158.089 55.233C158.088 58.9334 158.601 61.7887 159.103 64.3192C159.607 66.8541 160.091 69.0508 160.089 71.5142C160.089 71.7199 160.086 71.9285 160.079 72.1371C160.019 73.9672 159.582 75.5215 159.133 77.3546C158.683 79.1831 158.237 81.274 158.238 84.0668C158.238 87.1069 158.761 90.9697 160.316 96.3048C161.776 101.302 163.853 106.661 166.389 110.868C167.658 112.972 169.04 114.792 170.549 116.136C172.055 117.476 173.714 118.356 175.503 118.462C176.332 118.51 177.157 118.534 177.977 118.534C185.893 118.531 193.407 116.394 198.981 113.684C201.769 112.328 204.073 110.83 205.713 109.354C206.533 108.613 207.188 107.878 207.655 107.147C208.119 106.416 208.406 105.679 208.409 104.923C208.409 104.75 208.393 104.579 208.36 104.407C208.281 104.005 207.888 103.741 207.484 103.82C207.079 103.899 206.816 104.291 206.895 104.695L206.916 104.923C206.919 105.275 206.766 105.77 206.395 106.346C205.115 108.395 201.331 111.161 196.222 113.298C191.111 115.452 184.666 117.043 177.977 117.043C177.184 117.043 176.388 117.021 175.59 116.975C174.252 116.899 172.893 116.224 171.543 115.023C169.519 113.228 167.586 110.282 165.917 106.866C164.244 103.451 162.824 99.567 161.751 95.8875C160.222 90.6492 159.731 86.9325 159.731 84.0668C159.733 81.429 160.142 79.505 160.582 77.7078C161.019 75.915 161.503 74.2324 161.572 72.1878C161.579 71.9598 161.582 71.7363 161.582 71.5142C161.582 68.8511 161.064 66.5397 160.567 64.0301C160.07 61.519 159.582 58.7963 159.582 55.233C159.582 51.0558 160.255 45.7117 162.424 38.2544C164.666 30.5497 169.673 24.5096 176.154 20.3741C182.633 16.2416 190.584 14.0315 198.639 14.033C203.798 14.033 208.997 14.9377 213.88 16.8139C219.073 18.8079 225.486 22.1148 230.584 27.8449C235.678 33.5764 239.497 41.7178 239.503 53.5699C239.503 58.7188 238.777 64.5681 237.107 71.2147C237.007 71.6126 237.249 72.0179 237.649 72.1178C238.049 72.2176 238.455 71.9762 238.555 71.5768Z" fill="#1D2A30"/>
<path d="M184.855 53.7167L184.887 53.7078C185.078 53.6467 186.061 53.3635 187.385 53.365C188.581 53.365 190.042 53.5915 191.489 54.3933C192.934 55.1966 194.388 56.5721 195.572 58.9804C195.754 59.3499 196.2 59.5034 196.57 59.3231C196.94 59.1413 197.094 58.6957 196.913 58.3261C195.618 55.6809 193.933 54.0401 192.213 53.0893C190.495 52.137 188.766 51.8733 187.385 51.8748C185.631 51.8748 184.419 52.292 184.367 52.3084C183.977 52.444 183.771 52.8673 183.906 53.2562C184.04 53.6452 184.466 53.8523 184.855 53.7167Z" fill="#1D2A30"/>
<path d="M159.322 52.3487L159.333 52.3413C159.488 52.2086 161.233 50.8763 163.512 50.8868C165.232 50.8972 167.314 51.5768 169.555 54.2399C169.819 54.5558 170.291 54.599 170.607 54.3353C170.924 54.0715 170.965 53.602 170.701 53.2846C168.261 50.3473 165.666 49.3861 163.512 49.3965C160.467 49.4099 158.423 51.1669 158.356 51.2131C158.043 51.4799 158.004 51.9493 158.271 52.2638C158.537 52.5767 159.009 52.6155 159.322 52.3487Z" fill="#1D2A30"/>
<path d="M186.118 68.8993C186.118 70.6429 186.961 72.0571 187.999 72.0571C189.038 72.0571 189.88 70.6429 189.88 68.8993C189.88 67.1556 189.038 65.7414 187.999 65.7414C186.961 65.7414 186.118 67.1556 186.118 68.8993Z" fill="#1D2A30"/>
<path d="M164.478 67.172C164.478 68.9156 165.32 70.3298 166.357 70.3298C167.396 70.3298 168.238 68.9156 168.238 67.172C168.238 65.4269 167.396 64.0141 166.357 64.0141C165.32 64.0141 164.478 65.4269 164.478 67.172Z" fill="#1D2A30"/>
<path d="M170.128 59.9431C170.128 59.9431 171.297 68.6298 170.776 70.3302C170.255 72.0291 164.366 77.3345 164.136 79.6921C163.903 82.0512 169.059 84.4312 169.059 84.4312" fill="white"/>
<path d="M169.389 60.0408C169.389 60.0438 169.583 61.4834 169.777 63.306C169.971 65.1271 170.164 67.3342 170.163 68.7991C170.169 69.4414 170.113 69.966 170.063 70.1106C170.042 70.1925 169.924 70.4265 169.733 70.7052C169.056 71.7096 167.547 73.3519 166.19 74.9763C165.51 75.793 164.863 76.6111 164.359 77.3831C163.859 78.161 163.478 78.8674 163.393 79.62L163.383 79.848C163.389 80.6989 163.812 81.4128 164.332 82.0223C165.123 82.9358 166.211 83.6809 167.113 84.2264C168.015 84.7703 168.728 85.0997 168.746 85.1071C169.119 85.28 169.562 85.1175 169.736 84.7435C169.909 84.3709 169.746 83.9283 169.373 83.7555L169.179 83.6616C168.731 83.441 167.583 82.8375 166.587 82.0774C166.089 81.6989 165.632 81.2801 165.325 80.8792C165.011 80.4754 164.871 80.1118 164.875 79.848L164.878 79.7645C164.895 79.4426 165.241 78.7034 165.811 77.8972C166.659 76.6707 167.946 75.2117 169.073 73.9018C169.637 73.2461 170.163 72.6262 170.583 72.0733C171.004 71.5099 171.325 71.0539 171.49 70.5472C171.628 70.0718 171.651 69.5129 171.655 68.7991C171.654 65.6517 170.869 59.8605 170.869 59.8426C170.813 59.4358 170.439 59.1496 170.03 59.2033C169.621 59.2584 169.334 59.634 169.389 60.0408Z" fill="#1D2A30"/>
<path d="M166.357 89.4206C166.357 89.4206 178.115 92.3684 187.999 89.4206C187.999 89.4206 183.343 103.981 174.139 102.498C168.042 101.514 169.595 91.9734 169.595 91.9734L166.357 89.4206Z" fill="#1D2A30"/>
<path d="M198.775 31.9869C198.775 31.9869 193.913 28.6471 187.15 30.2194C180.385 31.7916 179.322 45.9924 179.322 45.9924C179.322 45.9924 175.708 42.7958 175.069 38.8659L172.943 44.9581L167.304 39.6513L165.415 45.9924L163.175 41.4202L158.836 49.8611C158.836 49.8611 152.314 41.4694 153.323 34.9838C156.078 17.2973 170.137 2.76566 199.541 4.32746C214.344 5.11283 219.869 15.2437 219.869 15.2437C219.869 15.2437 234.347 13.2884 240.767 20.786C262.63 46.3158 248.92 74.0378 228.155 100.302L221.038 75.2702L214.149 74.4848C214.149 74.4848 214.404 70.7025 214.192 66.7712C213.977 62.8414 211.639 57.0904 211.639 57.0904L209.087 58.2334L210.151 53.4393L204.323 56.4228C204.323 56.4228 206.786 36.7036 204.323 33.3624C201.858 30.0227 198.775 31.9869 198.775 31.9869Z" fill="#1D2A30"/>
<path d="M216.707 77.9626C216.707 77.9626 223.599 65.1434 230.801 68.27C238.004 71.3951 232.994 86.7165 226.729 91.7193C220.466 96.7207 216.707 91.7193 216.707 91.7193" fill="white"/>
<path d="M217.365 78.3149L217.422 78.2106C217.719 77.6785 219.152 75.1972 221.203 72.8873C222.227 71.7339 223.405 70.6236 224.65 69.8203C225.895 69.0141 227.191 68.5223 228.471 68.5238C229.14 68.5238 229.812 68.6535 230.503 68.953C231.596 69.4314 232.337 70.1974 232.846 71.2346C233.353 72.2703 233.6 73.5862 233.599 75.0631C233.602 77.8067 232.746 81.0793 231.387 84.0316C230.033 86.9853 228.165 89.6245 226.264 91.1386C224.272 92.7243 222.641 93.1952 221.348 93.1982C220.054 93.1982 219.046 92.7168 218.345 92.2221C217.995 91.9762 217.727 91.7288 217.55 91.5485L217.355 91.3339L217.312 91.2817L217.304 91.2713L217.179 91.3667L217.304 91.2728V91.2713L217.179 91.3667L217.304 91.2728C217.058 90.9434 216.589 90.8763 216.259 91.1237C215.931 91.3711 215.864 91.8376 216.11 92.1669C216.143 92.2086 216.606 92.8197 217.483 93.4396C218.36 94.0581 219.672 94.6885 221.348 94.6885C223.023 94.69 225.011 94.0506 227.196 92.3026C229.367 90.5619 231.307 87.7662 232.743 84.653C234.174 81.5368 235.089 78.1077 235.092 75.0631C235.092 73.4253 234.826 71.8918 234.19 70.5834C233.557 69.2749 232.526 68.2019 231.098 67.5864C230.224 67.2064 229.337 67.0336 228.471 67.0336C226.692 67.035 225.034 67.7474 223.559 68.7548C219.149 71.7875 216.085 77.5683 216.05 77.61C215.855 77.9721 215.992 78.4252 216.355 78.6189C216.718 78.8141 217.17 78.677 217.365 78.3149Z" fill="#1D2A30"/>
<path d="M179.338 34.645C179.329 34.645 179.321 34.645 179.314 34.6435C178.902 34.6316 178.578 34.2889 178.59 33.8775C178.697 30.5766 180.233 26.7287 182.79 23.6334C185.343 20.5501 188.981 18.2044 193.29 18.2029C193.547 18.2029 193.808 18.2118 194.07 18.2282C198.5 18.5144 201.451 20.5754 203.236 22.5485C205.031 24.5231 205.704 26.4038 205.726 26.462C205.865 26.8494 205.662 27.2756 205.274 27.4142C205.192 27.444 205.107 27.4575 205.023 27.4575C204.717 27.4575 204.429 27.2682 204.32 26.9627L204.317 26.9538L204.298 26.9046L204.213 26.7019C204.134 26.5216 204.01 26.2578 203.835 25.9374C203.486 25.2966 202.932 24.4292 202.132 23.55C200.524 21.7915 197.975 19.9823 193.971 19.7155C193.743 19.7006 193.516 19.6931 193.29 19.6931C193.287 19.6931 193.286 19.6931 193.283 19.6931C189.547 19.6931 186.303 21.7363 183.94 24.5842C181.58 27.4217 180.162 31.0505 180.083 33.9223C180.071 34.3261 179.739 34.645 179.338 34.645Z" fill="#45555C"/>
<path d="M220.834 52.6973C220.773 52.6973 220.711 52.6898 220.646 52.6734C220.248 52.5706 220.009 52.1637 220.112 51.7644C220.112 51.7644 220.139 51.663 220.188 51.4618C220.236 51.2606 220.306 50.9626 220.391 50.5825C220.56 49.824 220.785 48.7361 221.011 47.4306C221.463 44.8167 221.912 41.3235 221.912 37.8393C221.921 33.6263 221.232 29.4446 219.264 26.8739C218.271 25.5863 217.177 25.2167 216.002 25.2033C215.998 25.2033 215.994 25.2033 215.989 25.2033C214.895 25.2033 213.753 25.5908 212.862 26.02C211.965 26.4507 211.321 26.9111 211.202 27.0005L211.182 27.0155C211.047 27.1183 210.887 27.169 210.729 27.169C210.505 27.169 210.282 27.0691 210.136 26.8769C209.885 26.5505 209.946 26.0826 210.273 25.8322C210.299 25.8143 210.973 25.2972 212.015 24.7756C213.057 24.2555 214.466 23.716 216.002 23.713C216.019 23.713 216.035 23.713 216.053 23.713C217.568 23.713 219.225 24.3315 220.454 25.9738C222.756 29.0333 223.396 33.4802 223.405 37.8393C223.402 45.0566 221.563 52.1071 221.557 52.1399C221.47 52.4752 221.167 52.6973 220.834 52.6973Z" fill="#45555C"/>
<path d="M234.347 49.7151C234.339 49.7151 234.33 49.7136 234.323 49.7136C233.911 49.7002 233.587 49.3559 233.6 48.9446C233.6 48.9431 233.618 48.4096 233.618 47.4737C233.618 45.3203 233.523 41.0834 232.908 36.6871C232.299 32.2938 231.134 27.7336 229.149 25.0124C226.723 21.6876 224.28 20.9559 222.36 20.941C222.354 20.941 222.35 20.941 222.344 20.941C220.485 20.941 219.098 21.7159 218.986 21.7844L218.982 21.7874C218.859 21.8619 218.725 21.8962 218.592 21.8962C218.342 21.8962 218.097 21.7711 217.955 21.5416C217.74 21.1913 217.849 20.7323 218.2 20.5177C218.267 20.4805 219.931 19.4567 222.36 19.4507C222.376 19.4507 222.393 19.4507 222.409 19.4507C224.745 19.4507 227.749 20.5073 230.359 24.1391C232.608 27.2612 233.747 31.9749 234.385 36.4815C235.015 40.9851 235.111 45.2756 235.111 47.4737C235.111 48.4275 235.093 48.9863 235.093 48.9938C235.08 49.3962 234.748 49.7151 234.347 49.7151Z" fill="#45555C"/>
<path d="M246.627 46.2563C246.226 46.2563 245.893 45.9359 245.883 45.5321C245.592 35.3461 242.963 29.2136 240.421 25.6072C237.876 22.0037 235.398 20.9099 235.335 20.8815C234.956 20.7221 234.778 20.2854 234.939 19.9069C235.059 19.6223 235.335 19.4509 235.628 19.4509C235.723 19.4509 235.822 19.4687 235.916 19.509C236.011 19.5477 238.74 20.7236 241.51 24.567C244.284 28.4089 247.077 34.902 247.374 45.4903C247.386 45.9016 247.06 46.2444 246.648 46.2549C246.642 46.2563 246.635 46.2563 246.627 46.2563Z" fill="#45555C"/>
<path d="M168.296 36.3044C168.261 36.3044 168.225 36.3015 168.187 36.297C167.78 36.2374 167.498 35.8574 167.558 35.4505C167.568 35.3939 168.229 30.8903 171.119 25.9232C174 20.9621 179.18 15.5182 188.096 13.8178C190.623 13.3334 192.918 13.1248 194.997 13.1248C195.001 13.1248 195.006 13.1248 195.01 13.1248C201.22 13.1248 205.492 15.0025 208.193 16.9011C210.896 18.8027 212.033 20.7088 212.072 20.7729C212.281 21.1276 212.163 21.585 211.808 21.7937C211.689 21.8637 211.559 21.8965 211.43 21.8965C211.175 21.8965 210.926 21.7669 210.787 21.5299L210.781 21.5224L210.751 21.4733L210.612 21.2706C210.484 21.0888 210.282 20.8235 210.003 20.5016C209.445 19.8593 208.573 18.992 207.333 18.1202C204.852 16.381 200.913 14.6181 194.997 14.6151C193.018 14.6151 190.817 14.8148 188.377 15.2812C180.48 16.7983 175.782 21.3377 172.949 25.7861C170.125 30.2301 169.226 34.5712 169.064 35.4907L169.035 35.6681C168.98 36.0377 168.661 36.3044 168.296 36.3044Z" fill="#45555C"/>
<path d="M159.942 40.45C159.606 40.45 159.3 40.222 159.216 39.8822C158.985 38.9299 158.871 37.8912 158.871 36.7884C158.877 31.8303 161.151 25.5369 165.857 20.2062C170.561 14.8785 177.733 10.5448 187.472 9.66103C189.423 9.48219 191.258 9.40172 192.98 9.40172C192.995 9.40172 193.007 9.40172 193.021 9.40172C210.229 9.40172 216.264 17.5639 216.349 17.707C216.589 18.0408 216.513 18.5073 216.179 18.7472C216.047 18.8426 215.895 18.8888 215.743 18.8888C215.512 18.8888 215.283 18.78 215.137 18.5788L215.129 18.5684L215.089 18.5147L214.899 18.2882C214.725 18.0885 214.45 17.7949 214.067 17.4387C213.301 16.7264 212.096 15.7622 210.369 14.795C206.912 12.8591 201.36 10.8935 192.98 10.892C191.305 10.892 189.516 10.971 187.608 11.1453C178.247 12.0007 171.458 16.1273 166.975 21.1912C162.494 26.2522 160.357 32.2803 160.364 36.7884C160.364 37.7884 160.467 38.7123 160.667 39.529C160.764 39.9284 160.519 40.3322 160.118 40.4291C160.06 40.444 160 40.45 159.942 40.45Z" fill="#45555C"/>
<path d="M41.8411 142.197C41.8411 142.197 67.0816 122.801 78.0816 120.835C89.083 118.871 126.94 127.124 126.94 127.124V171.881C126.94 171.881 103.255 174.476 92.6252 182.243C81.997 190.01 45.3833 191.256 45.3833 191.256L41.8411 142.197Z" fill="#6F7172"/>
<path d="M41.8413 142.197L42.2966 142.787C42.298 142.786 42.6861 142.488 43.3952 141.956C45.8776 140.091 52.2441 135.4 59.1764 130.968C62.641 128.752 66.2489 126.601 69.5717 124.905C72.8916 123.21 75.9427 121.971 78.2131 121.569C79.3162 121.372 80.7538 121.278 82.4256 121.278C89.4639 121.277 100.588 122.917 109.91 124.563C114.573 125.385 118.793 126.208 121.846 126.825C124.898 127.442 126.776 127.852 126.781 127.852L126.94 127.124H126.194V171.882H126.94L126.858 171.141C126.84 171.143 120.898 171.794 113.606 173.423C106.309 175.059 97.6783 177.64 92.1851 181.641C89.6848 183.477 85.4633 185.012 80.5821 186.205C73.2573 188.003 64.4367 189.084 57.4627 189.71C53.9742 190.024 50.9454 190.224 48.7899 190.346C46.6344 190.468 45.3611 190.512 45.3581 190.512L45.3835 191.257L46.1284 191.203L42.5861 142.143L41.8413 142.197L41.0964 142.251L44.6386 191.309C44.6685 191.708 45.0088 192.014 45.4089 192C45.4223 192 54.5907 191.689 65.11 190.401C70.3703 189.757 75.9666 188.871 80.9388 187.652C85.9126 186.427 90.2535 184.892 93.0673 182.844C98.2038 179.08 106.729 176.479 113.933 174.877C117.536 174.071 120.813 173.508 123.186 173.144C124.373 172.964 125.334 172.832 125.997 172.746C126.66 172.661 127.021 172.622 127.021 172.622C127.4 172.581 127.687 172.262 127.687 171.882V127.124C127.687 126.773 127.442 126.472 127.099 126.396C127.093 126.394 119.527 124.746 110.168 123.095C100.804 121.445 89.6713 119.791 82.4256 119.788C80.6985 119.789 79.1894 119.882 77.9504 120.102C75.047 120.625 71.3764 122.235 67.4266 124.345C55.6012 130.679 41.4024 141.595 41.386 141.605C41.1874 141.757 41.0785 142.002 41.0964 142.251L41.8413 142.197Z" fill="#1D2A30"/>
<path d="M65.5308 128.331C65.5308 128.331 66.11 122.632 67.0011 119.488C67.8938 116.343 73.9961 116.68 75.3739 117.789C76.7516 118.898 78.0816 120.835 78.0816 120.835C78.0816 120.835 75.9635 121.452 75.3739 121.649C74.7827 121.846 74.1931 133.243 65.5308 128.331Z" fill="white"/>
<path d="M65.5309 128.331L66.2728 128.406C66.2743 128.406 66.3086 128.057 66.3773 127.477C66.5773 125.747 67.0759 121.953 67.7207 119.691C67.9058 119.042 68.3925 118.582 69.1687 118.238C69.9374 117.902 70.9525 117.744 71.9243 117.746C72.6139 117.746 73.2841 117.823 73.8245 117.949C74.3634 118.066 74.7798 118.259 74.9052 118.369C75.5232 118.864 76.1785 119.597 76.6637 120.196C76.907 120.497 77.11 120.765 77.2503 120.956L77.413 121.181L77.4667 121.257L78.0818 120.835L77.8728 120.12C77.8668 120.123 75.7651 120.734 75.1381 120.943C74.9112 121.023 74.8097 121.144 74.741 121.224C74.6186 121.388 74.5843 121.497 74.535 121.616C74.3828 122.042 74.2559 122.655 74.0424 123.424C73.7334 124.564 73.2572 125.978 72.5094 127.042C72.1377 127.577 71.7048 128.02 71.2047 128.325C70.7017 128.631 70.133 128.813 69.4165 128.814C68.5148 128.816 67.3565 128.51 65.8996 127.683L65.5309 128.331L65.1622 128.98C66.7728 129.892 68.1745 130.303 69.4165 130.304C70.8614 130.31 72.0452 129.719 72.902 128.881C74.1932 127.622 74.8649 125.872 75.3038 124.439C75.5217 123.722 75.6755 123.078 75.7934 122.627C75.8516 122.403 75.9024 122.224 75.9352 122.135L75.9531 122.09L75.5665 121.881L75.8934 122.172L75.9531 122.09L75.5665 121.881L75.8934 122.172L75.4038 121.737L75.6098 122.355C75.774 122.299 75.8516 122.217 75.8934 122.172L75.4038 121.737L75.6098 122.355C75.88 122.266 76.5622 122.06 77.1623 121.883C77.7623 121.704 78.2907 121.551 78.2907 121.551C78.5206 121.484 78.7042 121.311 78.7848 121.086C78.8654 120.861 78.8326 120.612 78.6982 120.413C78.6744 120.388 77.3488 118.431 75.8427 117.208C75.3948 116.858 74.8321 116.656 74.1604 116.496C73.4931 116.342 72.7244 116.256 71.9243 116.256C70.7987 116.257 69.612 116.424 68.5746 116.871C67.5461 117.311 66.6191 118.095 66.2832 119.285C65.3622 122.549 64.7935 128.234 64.789 128.255C64.7591 128.549 64.9054 128.833 65.1622 128.98L65.5309 128.331Z" fill="#1D2A30"/>
<path d="M133.868 72.4247L108.718 145.214L72.6138 132.781L97.7633 59.9914L133.868 72.4247Z" fill="#B3AEB6"/>
<path d="M108.718 145.214L72.6138 132.781L97.7633 59.9914L133.868 72.4247L115.993 124.159L115.501 125.584L108.718 145.214ZM99.6128 63.7811L76.4083 130.934L106.869 141.424L130.072 74.2712L99.6128 63.7811Z" fill="#7F00FF"/>
<path d="M98.1962 79.7585C97.9872 79.7585 97.7753 79.7243 97.5663 79.6527C96.5572 79.3055 96.0228 78.2087 96.3706 77.2027L99.4755 68.2134C99.7516 67.4147 100.501 66.9139 101.301 66.9139C101.51 66.9139 101.722 66.9482 101.931 67.0197C102.939 67.367 103.473 68.4638 103.127 69.4697L100.02 78.459C99.7442 79.2578 98.9963 79.7585 98.1962 79.7585Z" fill="#7F00FF"/>
<path d="M105.181 138.292C104.972 138.292 104.758 138.257 104.551 138.186C103.543 137.839 103.007 136.742 103.355 135.736L106.461 126.747C106.738 125.949 107.485 125.447 108.287 125.447C108.496 125.447 108.708 125.481 108.915 125.553C109.923 125.9 110.459 126.997 110.111 128.003L107.005 136.992C106.729 137.791 105.981 138.292 105.181 138.292Z" fill="#7F00FF"/>
<path d="M103.242 114.55C101.947 114.55 100.631 114.34 99.3381 113.895C93.0925 111.744 89.7757 104.944 91.9312 98.7089C93.6404 93.7612 98.2783 90.6555 103.24 90.6555C104.534 90.6555 105.851 90.8671 107.142 91.3112C113.389 93.4616 116.706 100.262 114.552 106.499C112.841 111.445 108.203 114.55 103.242 114.55ZM105.042 104.396L104.413 106.214L105.254 106.501C105.776 106.682 106.264 106.773 106.711 106.773C107.684 106.773 108.463 106.341 108.981 105.46L109.875 105.767L110.417 104.195L109.526 103.888C109.717 102.429 108.898 101.345 107.235 100.771C106.772 100.613 106.339 100.53 105.899 100.53C105.005 100.53 104.089 100.876 102.88 101.639C101.852 102.29 101.185 102.555 100.579 102.555C100.314 102.555 100.061 102.505 99.7934 102.412C98.9171 102.111 98.7067 101.648 98.9172 101.037C99.0664 100.604 99.3366 100.36 99.7904 100.36C99.98 100.36 100.199 100.402 100.458 100.491L100.965 100.666L101.592 98.849L101.207 98.7163C100.686 98.536 100.201 98.4466 99.7576 98.4466C98.7888 98.4466 98.0185 98.8773 97.5035 99.7476L96.593 99.4331L96.0481 101.005L96.9602 101.32C96.7915 102.768 97.6065 103.81 99.2515 104.376C99.7158 104.536 100.153 104.621 100.596 104.621C101.492 104.621 102.41 104.277 103.606 103.511C104.619 102.856 105.29 102.593 105.899 102.593C106.167 102.593 106.424 102.643 106.691 102.736C107.568 103.037 107.75 103.53 107.539 104.141C107.385 104.584 107.109 104.85 106.638 104.85C106.457 104.85 106.246 104.812 106.003 104.728L105.042 104.396Z" fill="#7F00FF"/>
<path d="M133.868 72.4255L133.164 72.1826L108.256 144.267L73.5633 132.319L98.2247 60.9399L133.625 73.1304L133.868 72.4255L134.111 71.7221L98.0067 59.2873C97.6171 59.1531 97.1917 59.3603 97.0574 59.7492L71.9093 132.538C71.7735 132.927 71.981 133.351 72.3706 133.485L108.475 145.92C108.66 145.984 108.868 145.97 109.045 145.885C109.222 145.799 109.359 145.644 109.423 145.458L134.574 72.6684C134.638 72.4836 134.625 72.2764 134.54 72.0991C134.453 71.9232 134.298 71.7861 134.111 71.7221L133.868 72.4255Z" fill="#1D2A30"/>
<path d="M41.8411 142.197C41.8411 142.197 78.4533 129.875 88.2963 128.108C98.1379 126.339 126.94 127.124 126.94 127.124V171.881C126.94 171.881 96.8721 180.988 92.2327 184.632C87.5933 188.276 45.3833 191.256 45.3833 191.256L41.8411 142.197Z" fill="#969796"/>
<path d="M41.8412 142.197L42.0801 142.902C42.086 142.9 44.3654 142.133 47.9495 140.951C53.3263 139.178 61.6229 136.477 69.4926 134.054C77.3548 131.632 84.8214 129.486 88.4294 128.841C93.5151 127.922 104.058 127.692 112.788 127.695C116.67 127.695 120.205 127.738 122.767 127.782C125.33 127.826 126.915 127.87 126.919 127.87L126.94 127.124H126.194V171.882H126.94L126.724 171.168C126.719 171.169 119.198 173.448 111.088 176.184C107.032 177.554 102.83 179.036 99.3397 180.41C97.5932 181.097 96.0259 181.756 94.7376 182.366C93.4449 182.977 92.4418 183.524 91.7716 184.047C91.3805 184.37 90.249 184.834 88.6936 185.243C83.2093 186.723 72.3243 188.055 62.8663 188.997C58.1329 189.47 53.7487 189.85 50.5468 190.109C47.3464 190.37 45.3357 190.513 45.3312 190.513L45.3835 191.257L46.1283 191.203L42.5861 142.143L41.8412 142.197L41.0963 142.251L44.6386 191.31C44.6684 191.72 45.0252 192.029 45.4357 191.999C45.4417 191.999 55.9998 191.254 67.149 190.051C72.7243 189.45 78.446 188.735 83.0824 187.939C85.4006 187.54 87.4471 187.123 89.0817 186.683C90.7222 186.233 91.9253 185.807 92.6941 185.218C93.1822 184.831 94.1346 184.296 95.375 183.713C99.7353 181.652 107.708 178.859 114.557 176.598C117.982 175.467 121.134 174.466 123.428 173.747C125.722 173.029 127.152 172.595 127.157 172.594C127.472 172.499 127.687 172.209 127.687 171.882V127.124C127.687 126.719 127.366 126.39 126.96 126.379C126.957 126.379 120.575 126.205 112.788 126.205C104.012 126.208 93.5002 126.419 88.1636 127.373C83.1406 128.279 71.5525 131.799 61.1512 135.105C50.7603 138.409 41.6054 141.489 41.6024 141.491C41.2799 141.599 41.0725 141.911 41.0963 142.251L41.8412 142.197Z" fill="#1D2A30"/>
<path d="M91.0715 147.389C90.0938 152.658 89.961 158.725 89.2116 164.493C88.4667 170.263 87.1038 175.695 83.8109 179.713C83.5512 180.032 83.599 180.501 83.9184 180.762C84.2378 181.021 84.708 180.973 84.9678 180.656C88.5473 176.269 89.9281 170.55 90.6909 164.683C91.4507 158.813 91.588 152.754 92.5389 147.661C92.615 147.258 92.3464 146.869 91.9418 146.793C91.5358 146.718 91.1462 146.985 91.0715 147.389Z" fill="#1D2A30"/>
<path d="M94.2643 131.682C93.5179 135.069 92.8133 138.464 92.1356 141.864C92.055 142.267 92.3178 142.66 92.7223 142.741C93.1268 142.82 93.5194 142.559 93.6 142.155C94.2762 138.763 94.9793 135.376 95.7227 132C95.8107 131.6 95.5555 131.202 95.1539 131.114C94.7509 131.024 94.3523 131.279 94.2643 131.682Z" fill="#1D2A30"/>
<path d="M152.848 149.619C150.76 145.84 144.789 147.661 137.822 158.591C130.857 169.519 128.01 182.264 129.694 186.904C131.378 191.547 153.909 197.171 153.909 197.171L158.553 185.414L152.848 149.619Z" fill="#73CD91"/>
<mask id="mask1_313_1503" style="mask-type:luminance" maskUnits="userSpaceOnUse" x="129" y="147" width="30" height="51">
<path d="M152.848 149.619C150.76 145.84 144.789 147.661 137.822 158.591C130.857 169.519 128.01 182.264 129.694 186.904C131.378 191.547 153.909 197.171 153.909 197.171L158.553 185.414L152.848 149.619Z" fill="white"/>
</mask>
<g mask="url(#mask1_313_1503)">
<path d="M153.909 197.171C153.909 197.171 131.378 191.547 129.694 186.904C129.379 186.034 129.223 184.879 129.223 183.505C129.223 177.549 132.163 167.47 137.822 158.591C142.645 151.025 146.991 147.824 149.901 147.824C151.194 147.824 152.205 148.457 152.848 149.619L158.553 185.414L153.909 197.171Z" fill="#4D2972"/>
</g>
<path d="M152.848 149.62L153.502 149.26C153.129 148.584 152.627 148.029 152.009 147.651C151.393 147.271 150.669 147.077 149.901 147.079C148.165 147.088 146.226 147.997 144.095 149.803C141.963 151.616 139.633 154.362 137.192 158.19C131.463 167.197 128.488 177.328 128.476 183.505C128.478 184.937 128.635 186.164 128.993 187.158C129.294 187.966 129.933 188.623 130.763 189.268C132.223 190.389 134.359 191.451 136.771 192.459C143.999 195.469 153.711 197.889 153.729 197.894C154.092 197.985 154.466 197.792 154.604 197.445L159.249 185.689L159.291 185.298L153.586 149.503L153.502 149.26L152.848 149.62L152.111 149.737L157.785 185.331L153.215 196.898L153.909 197.171L154.09 196.448C154.09 196.448 153.744 196.362 153.129 196.201C150.973 195.633 145.546 194.149 140.499 192.308C137.978 191.39 135.55 190.38 133.696 189.369C132.769 188.864 131.987 188.359 131.417 187.882C130.844 187.41 130.503 186.96 130.397 186.651C130.124 185.905 129.968 184.823 129.969 183.505C129.957 177.769 132.862 167.741 138.452 158.99C140.833 155.253 143.087 152.615 145.062 150.937C147.035 149.251 148.725 148.56 149.901 148.569C150.427 148.57 150.855 148.693 151.229 148.921C151.6 149.149 151.924 149.491 152.194 149.98L152.848 149.62Z" fill="#1D2A30"/>
<path d="M162.378 172.499L149.453 144.264C149.453 144.264 141.033 132.232 139.375 127.644C137.713 123.056 119.19 119.488 115.007 119.488C110.825 119.488 106.399 126.95 106.399 126.95L115.101 126.956C115.101 126.956 118.346 130.363 118.754 132.401C119.164 134.44 107.25 144.578 105.548 145.541C103.846 146.504 99.3545 147.999 94.6225 151.499C89.8891 155 79.225 157.73 77.2397 160.867C75.2543 164.006 76.656 164.599 78.0816 165.321C79.5071 166.044 81.891 166.214 81.891 166.214C81.891 166.214 81.0402 169.782 81.891 171.651C82.7419 173.521 87.7022 173.35 87.7022 173.35C87.7022 173.35 87.9351 175.944 90.3593 176.346C92.7835 176.749 94.6225 177.475 94.6225 177.475C94.6225 177.475 104.867 179.205 109.463 178.232C114.058 177.258 128.001 169.843 131.411 170.153C134.822 170.461 144.244 192.301 144.244 192.301C144.244 192.301 160.335 189.58 162.378 172.499Z" fill="white"/>
<path d="M162.378 172.498L163.057 172.188L150.133 143.954L150.066 143.838C150.064 143.835 149.542 143.089 148.73 141.893C147.51 140.1 145.641 137.3 143.928 134.526C142.215 131.762 140.651 128.992 140.076 127.391C139.794 126.622 139.223 125.981 138.488 125.394C137.197 124.37 135.347 123.482 133.214 122.68C130.017 121.482 126.19 120.504 122.803 119.82C119.407 119.136 116.494 118.746 115.007 118.743C113.733 118.747 112.546 119.296 111.47 120.042C108.263 122.297 105.79 126.534 105.757 126.57C105.62 126.802 105.617 127.085 105.751 127.319C105.884 127.552 106.129 127.695 106.399 127.695L115.102 127.701V126.956L114.561 127.468L114.693 127.61C114.996 127.938 115.77 128.801 116.5 129.783C117.233 130.753 117.906 131.893 118.023 132.547L118.205 132.512H118.018L118.023 132.547L118.205 132.512H118.018L118.009 132.561C117.975 132.716 117.774 133.114 117.432 133.58C116.233 135.249 113.471 137.938 110.868 140.252C109.563 141.413 108.295 142.49 107.268 143.322C106.754 143.738 106.302 144.092 105.939 144.365C105.579 144.635 105.296 144.829 105.179 144.893C104.418 145.326 102.843 145.958 100.897 146.899C98.9442 147.842 96.5946 149.113 94.1794 150.9C91.9478 152.559 88.1174 154.125 84.605 155.635C82.8451 156.395 81.1613 157.146 79.7641 157.921C78.3699 158.704 77.2473 159.481 76.6085 160.469C75.8695 161.646 75.5158 162.54 75.5083 163.372C75.4964 164.126 75.88 164.762 76.3368 165.138C76.7906 165.525 77.2951 165.755 77.7444 165.986C78.5833 166.408 79.582 166.631 80.3955 166.773C81.2061 166.911 81.8211 166.956 81.8375 166.958L81.8912 166.214L81.1658 166.041C81.1598 166.072 80.7687 167.688 80.7672 169.411C80.7702 170.275 80.8568 171.171 81.212 171.959C81.4957 172.574 82.0122 172.971 82.5585 173.248C83.3884 173.665 84.3632 173.858 85.2544 173.971C86.144 174.081 86.9441 174.099 87.3815 174.099C87.5935 174.099 87.7203 174.094 87.7278 174.094L87.7024 173.349L86.9591 173.416C86.965 173.473 87.0292 174.202 87.4576 175.039C87.8756 175.871 88.7548 176.844 90.2371 177.081C91.4074 177.276 92.4448 177.549 93.1837 177.774C93.5524 177.886 93.848 177.986 94.048 178.057L94.2764 178.141L94.3481 178.167L94.4988 178.209C94.5197 178.211 100.765 179.272 105.787 179.273C107.203 179.273 108.523 179.191 109.617 178.96C110.846 178.698 112.54 178.063 114.513 177.254C117.465 176.042 120.999 174.437 124.139 173.139C125.706 172.491 127.175 171.92 128.409 171.516C129.636 171.109 130.653 170.883 131.189 170.889L131.342 170.895H131.344C131.365 170.893 131.501 170.931 131.693 171.065C132.057 171.312 132.581 171.858 133.149 172.604C135.158 175.23 137.79 180.261 139.882 184.595C140.93 186.765 141.851 188.766 142.508 190.225C143.166 191.684 143.559 192.593 143.559 192.596C143.696 192.912 144.029 193.092 144.369 193.036C144.431 193.022 148.543 192.328 152.956 189.426C157.367 186.535 162.078 181.363 163.118 172.586C163.135 172.449 163.114 172.314 163.057 172.188L162.378 172.498L161.636 172.409C160.636 180.716 156.28 185.443 152.135 188.182C150.063 189.547 148.045 190.397 146.55 190.903C145.804 191.157 145.189 191.323 144.764 191.426C144.552 191.478 144.386 191.514 144.277 191.537L144.12 191.566L144.244 192.301L144.931 192.006C144.926 191.999 142.568 186.529 139.773 181.006C138.375 178.243 136.87 175.469 135.48 173.337C134.785 172.27 134.12 171.364 133.487 170.685C133.171 170.345 132.862 170.062 132.541 169.84C132.22 169.621 131.883 169.451 131.478 169.411L131.189 169.399C130.036 169.409 128.485 169.883 126.587 170.573C123.756 171.613 120.25 173.178 117.029 174.57C113.821 175.96 110.855 177.181 109.308 177.503C108.384 177.699 107.141 177.784 105.787 177.783C103.376 177.784 100.606 177.524 98.4486 177.261C97.3694 177.132 96.4424 177.001 95.7856 176.902C95.1288 176.804 94.7481 176.74 94.7481 176.74L94.6227 177.474L94.8974 176.781C94.866 176.77 92.9882 176.027 90.4819 175.612C89.54 175.448 89.0907 174.922 88.7847 174.355C88.6399 174.075 88.5503 173.793 88.5026 173.588L88.4548 173.348L88.4458 173.29L88.4443 173.279L88.2129 173.305L88.4458 173.284L88.4443 173.279L88.2129 173.305L88.4458 173.284C88.41 172.889 88.0726 172.592 87.6771 172.606C87.6756 172.606 87.5741 172.609 87.3815 172.609C86.8546 172.61 85.6962 172.577 84.6364 172.364C84.1064 172.26 83.6049 172.108 83.2347 171.92C82.8585 171.731 82.6466 171.518 82.5704 171.342C82.357 170.886 82.2555 170.157 82.2599 169.411C82.2585 168.662 82.348 167.896 82.4391 167.324C82.4838 167.038 82.5301 166.8 82.563 166.636C82.5973 166.47 82.6182 166.387 82.6167 166.387C82.6674 166.174 82.6227 165.949 82.4928 165.773C82.3644 165.597 82.1629 165.487 81.945 165.47C81.9435 165.47 81.8121 165.461 81.5793 165.436C80.8836 165.365 79.3058 165.116 78.4206 164.657C77.9504 164.423 77.5414 164.213 77.3131 164.01C77.0847 163.795 77.0145 163.688 77.0011 163.372C76.9951 163.016 77.1966 162.321 77.8713 161.265C78.2236 160.685 79.1804 159.943 80.491 159.223C82.4555 158.129 85.1827 157.019 87.8637 155.858C90.5491 154.691 93.1882 153.483 95.0676 152.098C97.3843 150.384 99.6458 149.158 101.548 148.24C103.455 147.316 104.975 146.718 105.915 146.189C106.194 146.03 106.559 145.767 107.05 145.393C108.748 144.097 111.795 141.516 114.445 138.985C115.77 137.72 116.993 136.473 117.903 135.391C118.359 134.848 118.736 134.351 119.017 133.892C119.289 133.427 119.498 133.03 119.511 132.512L119.487 132.255C119.353 131.601 119.036 130.957 118.653 130.309C117.5 128.383 115.66 126.464 115.642 126.442C115.502 126.294 115.308 126.211 115.102 126.211L106.399 126.205V126.95L107.041 127.33C107.041 127.33 107.103 127.224 107.227 127.027C107.663 126.337 108.834 124.583 110.31 123.036C111.046 122.263 111.859 121.543 112.673 121.033C113.488 120.521 114.291 120.23 115.007 120.233C115.96 120.23 117.896 120.448 120.219 120.852C123.71 121.454 128.13 122.47 131.792 123.75C133.62 124.388 135.262 125.094 136.485 125.826C137.715 126.55 138.484 127.327 138.673 127.896C139.12 129.129 139.969 130.754 141.002 132.547C144.096 137.912 148.836 144.681 148.842 144.69L149.454 144.264L148.775 144.574L161.699 172.807L162.378 172.498Z" fill="#1D2A30"/>
<path d="M82.0491 166.942C82.0521 166.941 85.4018 166.218 88.8694 165.366C90.6039 164.938 92.3669 164.481 93.7685 164.059C94.4686 163.849 95.0777 163.649 95.5613 163.46C95.8031 163.364 96.0121 163.273 96.1972 163.177C96.3823 163.074 96.5391 162.99 96.7197 162.794V162.792L96.6659 162.746L96.7152 162.798L96.7197 162.792L96.6659 162.746L96.7152 162.798C96.7376 162.768 96.9734 162.61 97.2988 162.451C98.4617 161.865 100.823 161.008 102.855 160.321C103.874 159.975 104.816 159.667 105.503 159.446C106.19 159.226 106.619 159.093 106.619 159.093C107.014 158.971 107.233 158.554 107.111 158.16C106.988 157.767 106.57 157.548 106.178 157.67C106.172 157.672 103.828 158.399 101.362 159.257C100.129 159.688 98.8662 160.148 97.8422 160.575C97.3287 160.788 96.8749 160.99 96.5047 161.183C96.1285 161.387 95.8524 161.533 95.5912 161.817L95.8046 162.002L95.621 161.786L95.5912 161.817L95.8046 162.002L95.621 161.786L95.612 161.792C95.5374 161.85 95.1866 162.017 94.7209 162.183C93.0595 162.785 89.7844 163.622 86.9602 164.294C85.5451 164.631 84.2375 164.929 83.2851 165.142C82.3312 165.357 81.7341 165.485 81.7326 165.485C81.3296 165.573 81.0743 165.969 81.1609 166.372C81.249 166.773 81.6461 167.029 82.0491 166.942Z" fill="#1D2A30"/>
<path d="M87.8501 174.079C87.8546 174.079 89.725 173.698 91.9253 173.275C94.1226 172.851 96.6602 172.383 97.9245 172.22C98.7202 172.111 99.8755 171.729 101.276 171.214C105.439 169.667 111.468 166.893 111.476 166.89C111.85 166.719 112.014 166.276 111.843 165.902C111.67 165.528 111.226 165.364 110.852 165.537C110.85 165.537 110.186 165.843 109.142 166.309C107.58 167.008 105.17 168.065 102.916 168.974C101.791 169.43 100.703 169.847 99.786 170.164C98.8739 170.482 98.1096 170.696 97.732 170.743C95.051 171.091 87.565 172.617 87.5531 172.62C87.1485 172.702 86.8873 173.096 86.9709 173.498C87.053 173.902 87.4471 174.163 87.8501 174.079Z" fill="#1D2A30"/>
<path d="M94.6869 178.216C94.6914 178.216 97.344 177.991 100.282 177.638C101.751 177.462 103.291 177.254 104.617 177.023C105.95 176.786 107.03 176.552 107.733 176.236C108.772 175.754 110.947 174.985 112.828 174.354C114.713 173.719 116.321 173.212 116.326 173.211C116.718 173.087 116.936 172.668 116.812 172.276C116.688 171.884 116.269 171.667 115.875 171.79C115.873 171.79 114.252 172.301 112.352 172.941C110.446 173.583 108.281 174.343 107.108 174.883C106.705 175.075 105.633 175.337 104.36 175.555C102.436 175.89 99.9771 176.187 98.0097 176.397C96.0408 176.607 94.563 176.732 94.56 176.732C94.1495 176.766 93.845 177.127 93.8793 177.537C93.9137 177.947 94.2749 178.252 94.6869 178.216Z" fill="#1D2A30"/>
<path d="M251.01 160.056C235.305 170.39 225.818 195.35 225.818 195.35L201.303 240.875C201.303 240.875 180.689 190.204 174.848 189.555L152.848 149.62C152.848 149.62 155.45 173.025 146.281 182.96C137.111 192.894 129.694 186.905 129.694 186.905L136.541 205.782L138.247 214.751C138.247 214.751 167.165 301.364 176.618 306.725C186.073 312.087 207.582 314.491 225.818 301.158C244.057 287.824 275.258 237.403 278.213 220.908" fill="#8D67B4"/>
<path d="M250.599 159.434C242.579 164.719 236.247 173.625 231.878 181.207C227.514 188.79 225.13 195.061 225.12 195.085L225.819 195.35L225.162 194.997L200.647 240.521L201.303 240.875L201.995 240.593C201.993 240.587 196.836 227.914 190.944 215.145C187.997 208.761 184.867 202.354 182.095 197.479C180.707 195.04 179.411 192.986 178.253 191.49C177.671 190.74 177.126 190.131 176.596 189.673C176.063 189.222 175.552 188.893 174.931 188.814L174.848 189.554L175.503 189.195L153.502 149.26C153.33 148.949 152.963 148.801 152.623 148.909C152.284 149.016 152.067 149.348 152.106 149.701C152.106 149.701 152.127 149.883 152.158 150.234C152.252 151.286 152.443 153.813 152.443 157.074C152.443 160.904 152.179 165.746 151.199 170.385C150.221 175.024 148.518 179.444 145.732 182.455C141.673 186.84 138.109 187.942 135.419 187.949C133.793 187.949 132.466 187.535 131.548 187.121C131.09 186.913 130.735 186.708 130.499 186.557L130.236 186.378L130.175 186.334L130.164 186.325C129.903 186.115 129.536 186.103 129.261 186.298C128.988 186.492 128.879 186.843 128.993 187.158L135.82 205.978L137.515 214.889L137.54 214.986C137.542 214.992 144.772 236.65 153.19 258.989C157.398 270.16 161.903 281.499 165.956 290.401C167.983 294.852 169.895 298.693 171.612 301.611C172.471 303.071 173.28 304.3 174.043 305.269C174.809 306.236 175.512 306.949 176.249 307.373C180.717 309.901 187.641 311.744 195.639 311.747C205.159 311.749 216.202 309.111 226.259 301.758C230.913 298.353 236.304 292.669 241.865 285.781C250.201 275.45 258.895 262.418 265.792 250.403C272.69 238.374 277.791 227.428 278.948 221.039C279.02 220.634 278.749 220.246 278.345 220.175C277.939 220.102 277.551 220.371 277.478 220.777C276.77 224.754 274.288 230.981 270.677 238.198C265.261 249.037 257.312 262.171 249.023 273.824C240.741 285.475 232.084 295.661 225.378 300.555C215.608 307.698 204.889 310.257 195.639 310.259C187.878 310.262 181.15 308.443 176.987 306.077C176.544 305.831 175.912 305.238 175.217 304.348C172.571 300.999 168.913 293.633 165.003 284.565C159.128 270.948 152.614 253.429 147.57 239.322C145.048 232.267 142.894 226.064 141.372 221.626C140.609 219.407 140.006 217.628 139.593 216.406C139.179 215.182 138.955 214.515 138.955 214.515L138.248 214.75L138.981 214.612L137.276 205.642L137.243 205.527L130.397 186.651L129.694 186.905L129.225 187.484C129.297 187.538 131.648 189.434 135.419 189.439C138.546 189.447 142.575 188.086 146.829 183.464C149.894 180.137 151.645 175.477 152.658 170.692C153.67 165.904 153.935 160.972 153.936 157.074C153.936 152.649 153.591 149.557 153.59 149.538L152.848 149.62L152.194 149.979L174.194 189.913C174.31 190.125 174.525 190.268 174.766 190.295C174.875 190.298 175.209 190.439 175.62 190.802C176.402 191.471 177.447 192.799 178.596 194.57C182.649 200.792 188.175 212.469 192.659 222.552C194.904 227.596 196.892 232.247 198.32 235.638C199.033 237.332 199.606 238.712 200.002 239.667C200.396 240.624 200.612 241.155 200.612 241.155C200.721 241.423 200.974 241.602 201.263 241.618C201.553 241.633 201.823 241.483 201.96 241.226L226.475 195.702L226.516 195.614C226.516 195.614 226.659 195.237 226.947 194.541C227.952 192.107 230.691 185.848 234.876 179.094C239.059 172.339 244.699 165.096 251.42 160.677C251.765 160.452 251.859 159.989 251.632 159.646C251.405 159.302 250.943 159.208 250.599 159.434Z" fill="#1D2A30"/>
<path d="M166.619 195.959C167.426 194.752 168.17 193.502 168.852 192.222C169.046 191.859 168.907 191.408 168.543 191.214C168.179 191.022 167.728 191.159 167.534 191.523C166.874 192.76 166.156 193.967 165.377 195.132C165.148 195.475 165.241 195.937 165.583 196.165C165.926 196.394 166.389 196.302 166.619 195.959Z" fill="#1D2A30"/>
<path d="M147.543 208.125C154.048 207.435 160.07 204.055 164.254 199.101C164.52 198.787 164.479 198.317 164.165 198.052C163.85 197.787 163.379 197.827 163.114 198.141C159.168 202.813 153.474 206.001 147.386 206.643C146.976 206.687 146.679 207.053 146.723 207.463C146.767 207.871 147.134 208.168 147.543 208.125Z" fill="#1D2A30"/>
<path d="M136.252 206.468C138.776 207.529 141.479 208.131 144.216 208.238C144.628 208.253 144.974 207.934 144.99 207.523C145.007 207.111 144.686 206.764 144.274 206.748C141.718 206.649 139.191 206.086 136.831 205.095C136.452 204.936 136.015 205.113 135.853 205.493C135.694 205.871 135.873 206.308 136.252 206.468Z" fill="#1D2A30"/>
<path d="M206.989 260.984C207.01 261.405 207.021 261.826 207.021 262.247C207.021 263.849 206.866 265.443 206.507 266.99C206.413 267.391 206.664 267.79 207.066 267.883C207.467 267.977 207.869 267.726 207.961 267.326C208.349 265.652 208.514 263.946 208.514 262.247C208.514 261.801 208.503 261.355 208.481 260.911C208.461 260.5 208.11 260.183 207.699 260.204C207.287 260.223 206.97 260.573 206.989 260.984Z" fill="#1D2A30"/>
<path d="M200.656 241.244C203.493 246.183 205.627 251.728 206.58 257.32C206.649 257.725 207.034 257.998 207.44 257.929C207.848 257.859 208.121 257.475 208.051 257.069C207.063 251.277 204.867 245.579 201.951 240.503C201.745 240.146 201.29 240.022 200.932 240.228C200.575 240.432 200.451 240.888 200.656 241.244Z" fill="#1D2A30"/>
<path d="M215.445 248.561C215.408 248.529 210.951 242.907 205.661 240.21C205.293 240.024 204.844 240.17 204.658 240.536C204.471 240.903 204.617 241.352 204.984 241.538C207.413 242.767 209.758 244.763 211.475 246.448C212.335 247.292 213.039 248.056 213.526 248.608C213.771 248.885 213.96 249.107 214.087 249.26C214.215 249.412 214.278 249.491 214.278 249.491C214.536 249.813 215.005 249.865 215.328 249.609C215.65 249.353 215.702 248.883 215.445 248.561Z" fill="#1D2A30"/>
<path d="M253.715 182.217C253.688 182.212 252.949 182.115 251.69 182.115C247.402 182.111 236.971 183.258 228.313 193.221C228.043 193.532 228.077 194.003 228.387 194.273C228.699 194.543 229.17 194.508 229.44 194.198C237.724 184.667 247.639 183.61 251.69 183.605C252.282 183.605 252.744 183.628 253.058 183.65C253.213 183.662 253.332 183.673 253.41 183.681L253.517 183.693C253.925 183.747 254.301 183.461 254.356 183.054C254.41 182.646 254.124 182.27 253.715 182.217Z" fill="#1D2A30"/>
<path d="M268.1 220.729C267.504 220.813 266.906 220.854 266.31 220.854C264.403 220.854 262.52 220.424 260.814 219.552C260.447 219.364 259.998 219.51 259.809 219.875C259.621 220.242 259.766 220.691 260.133 220.878C262.059 221.863 264.177 222.345 266.31 222.345C266.976 222.345 267.643 222.299 268.308 222.205C268.717 222.148 269 221.771 268.943 221.363C268.885 220.956 268.508 220.671 268.1 220.729Z" fill="#1D2A30"/>
<path d="M284.035 202.852C281.902 213.087 276.24 218.144 271.407 219.899C271.019 220.039 270.819 220.467 270.959 220.853C271.099 221.24 271.528 221.44 271.914 221.3C277.264 219.37 283.288 213.82 285.497 203.154C285.58 202.752 285.321 202.357 284.918 202.274C284.513 202.19 284.119 202.448 284.035 202.852Z" fill="#1D2A30"/>
<path d="M219.57 142.872C219.569 142.872 219.467 142.894 219.263 142.939C217.828 143.246 211.543 144.49 204.224 144.488C197.517 144.494 189.961 143.43 184.497 139.773C184.154 139.545 183.691 139.636 183.461 139.979C183.233 140.32 183.325 140.784 183.667 141.012C189.558 144.933 197.368 145.973 204.224 145.979C212.779 145.977 219.875 144.329 219.908 144.323C220.309 144.229 220.559 143.828 220.466 143.427C220.372 143.027 219.972 142.778 219.57 142.872Z" fill="#1D2A30"/>
<path d="M136.917 283.732C136.932 283.772 140.068 292.617 146.854 302.243C153.639 311.859 164.098 322.302 178.803 325.345C179.208 325.428 179.602 325.171 179.686 324.767C179.769 324.364 179.509 323.969 179.106 323.886C164.952 320.969 154.745 310.845 148.075 301.386C144.744 296.66 142.3 292.113 140.694 288.751C139.891 287.07 139.297 285.687 138.904 284.725C138.707 284.245 138.562 283.869 138.465 283.616C138.37 283.363 138.323 283.236 138.323 283.234C138.186 282.847 137.759 282.644 137.371 282.781C136.983 282.918 136.778 283.345 136.917 283.732Z" fill="#1D2A30"/>
<path d="M220.573 331.637C219.115 332.735 217.577 333.747 216.009 334.716C215.658 334.932 215.549 335.391 215.765 335.741C215.982 336.091 216.442 336.2 216.792 335.983C218.387 335 219.963 333.963 221.472 332.826C221.802 332.579 221.866 332.112 221.618 331.783C221.371 331.455 220.902 331.39 220.573 331.637Z" fill="#1D2A30"/>
<path d="M76.5322 61.119V92.0376C76.5322 92.4504 76.8666 92.7827 77.2786 92.7827C77.6906 92.7827 78.025 92.4504 78.025 92.0376V61.119C78.025 60.7077 77.6906 60.3738 77.2786 60.3738C76.8666 60.3738 76.5322 60.7077 76.5322 61.119Z" fill="#1D2A30"/>
<path d="M76.5322 42.5678V54.9355C76.5322 55.3468 76.8666 55.6807 77.2786 55.6807C77.6906 55.6807 78.025 55.3468 78.025 54.9355V42.5678C78.025 42.1565 77.6906 41.8227 77.2786 41.8227C76.8666 41.8227 76.5322 42.1565 76.5322 42.5678Z" fill="#1D2A30"/>
<path d="M76.5322 31.0107V37.626C76.5322 38.0373 76.8666 38.3711 77.2786 38.3711C77.6906 38.3711 78.025 38.0373 78.025 37.626V31.0107C78.025 30.5994 77.6906 30.2655 77.2786 30.2655C76.8666 30.2655 76.5322 30.5994 76.5322 31.0107Z" fill="#1D2A30"/>
<path d="M70.8495 88.8925L76.698 96.1188C76.8413 96.2961 77.0518 96.396 77.2787 96.396C77.5056 96.396 77.7175 96.2961 77.8593 96.1188L83.7079 88.8925C83.9676 88.5721 83.9168 88.1026 83.5959 87.8448C83.2765 87.5855 82.8062 87.6362 82.5465 87.9551L77.2787 94.4661L72.0108 87.9551C71.7526 87.6362 71.2824 87.5855 70.9614 87.8448C70.6405 88.1026 70.5912 88.5721 70.8495 88.8925Z" fill="#1D2A30"/>
<g filter="url(#filter0_d_313_1503)">
<path d="M56.5664 92.9998C42.4894 92.9998 42.4663 113.017 56.5664 113.017C70.6422 113.017 70.6656 92.9998 56.5664 92.9998Z" fill="#E7E8E5"/>
</g>
<path d="M65.1261 104.884C64.3752 108.328 61.5197 111.315 56.5645 111.315C44.8643 111.315 44.8823 94.7012 56.5645 94.7012C56.6409 94.7012 56.7174 94.7012 56.7938 94.7054C45.7996 94.9069 45.8534 110.641 57.0096 110.641C61.5603 110.641 64.2717 108.007 65.1261 104.884Z" fill="#D4D6D3"/>
<path d="M56.9847 103.037V106.883C58.5078 106.855 59.4977 106.047 59.4977 104.988C59.4977 104.026 58.9647 103.441 56.9847 103.037ZM56.3149 102.187V98.3831C54.8375 98.4109 53.863 99.219 53.863 100.222C53.863 101.17 54.3503 101.755 56.3149 102.187ZM56.6498 96.8919C56.8477 96.8919 57.0154 97.0453 57.0154 97.2263V97.7837C58.1118 97.8672 58.9036 98.2021 59.7262 98.759C59.863 98.8568 59.9392 98.9405 59.9392 99.0799C59.9392 99.2746 59.7564 99.428 59.5432 99.428C59.4519 99.428 59.3755 99.4143 59.2691 99.3305C58.5232 98.7871 57.792 98.5084 56.9847 98.4249V102.326C59.2996 102.772 60.2743 103.567 60.2743 104.932C60.2743 106.409 58.9189 107.454 57.0154 107.51V108.597C57.0154 108.778 56.8477 108.931 56.6498 108.931C56.4517 108.931 56.2842 108.778 56.2842 108.597V107.496C54.9595 107.399 53.8784 106.953 52.8578 106.145C52.7512 106.061 52.6901 105.977 52.6901 105.852C52.6901 105.671 52.8732 105.504 53.0708 105.504C53.2081 105.504 53.2993 105.56 53.3451 105.601C54.1979 106.326 55.1267 106.758 56.3149 106.869V102.898C54.0302 102.438 53.0861 101.671 53.0861 100.278C53.0861 98.8708 54.4262 97.7978 56.2842 97.7559V97.2263C56.2842 97.0453 56.4517 96.8919 56.6498 96.8919Z" fill="#D4D6D3"/>
<g filter="url(#filter1_d_313_1503)">
<path d="M42.5664 62.9999C28.4894 62.9999 28.4663 83.017 42.5664 83.017C56.6422 83.017 56.6656 62.9999 42.5664 62.9999Z" fill="#E7E8E5"/>
</g>
<path d="M51.1261 74.8849C50.3752 78.3287 47.5197 81.3157 42.5645 81.3157C30.8643 81.3157 30.8823 64.7016 42.5645 64.7016C42.6409 64.7016 42.7174 64.7016 42.7938 64.7057C31.7996 64.9072 31.8534 80.641 43.0096 80.641C47.5603 80.641 50.2717 78.0078 51.1261 74.8849Z" fill="#D4D6D3"/>
<path d="M42.9848 73.0373V76.8837C44.5079 76.8556 45.4978 76.0475 45.4978 74.9885C45.4978 74.0267 44.9647 73.4414 42.9848 73.0373ZM42.315 72.1876V68.3834C40.8376 68.4113 39.8631 69.2194 39.8631 70.2225C39.8631 71.1702 40.3504 71.7558 42.315 72.1876ZM42.6499 66.8923C42.8477 66.8923 43.0154 67.0457 43.0154 67.2266V67.7841C44.1119 67.8676 44.9036 68.2025 45.7263 68.7594C45.8631 68.8572 45.9393 68.9409 45.9393 69.0803C45.9393 69.275 45.7565 69.4284 45.5433 69.4284C45.452 69.4284 45.3756 69.4146 45.2692 69.3309C44.5232 68.7875 43.7921 68.5088 42.9848 68.4253V72.3267C45.2996 72.7727 46.2744 73.567 46.2744 74.9326C46.2744 76.4097 44.919 77.4546 43.0154 77.5105V78.5974C43.0154 78.7786 42.8477 78.9318 42.6499 78.9318C42.4517 78.9318 42.2843 78.7786 42.2843 78.5974V77.4965C40.9596 77.399 39.8784 76.9531 38.8579 76.145C38.7513 76.0613 38.6902 75.9778 38.6902 75.8525C38.6902 75.671 38.8732 75.5041 39.0708 75.5041C39.2081 75.5041 39.2994 75.56 39.3452 75.6016C40.198 76.3262 41.1267 76.7581 42.315 76.8696V72.898C40.0303 72.4385 39.0862 71.6718 39.0862 70.2784C39.0862 68.8712 40.4263 67.7981 42.2843 67.7563V67.2266C42.2843 67.0457 42.4517 66.8923 42.6499 66.8923Z" fill="#D4D6D3"/>
<defs>
<filter id="filter0_d_313_1503" x="43.9714" y="92.7462" width="23.1607" height="22.0457" filterUnits="userSpaceOnUse" color-interpolation-filters="sRGB">
<feFlood flood-opacity="0" result="BackgroundImageFix"/>
<feColorMatrix in="SourceAlpha" type="matrix" values="0 0 0 0 0 0 0 0 0 0 0 0 0 0 0 0 0 0 127 0" result="hardAlpha"/>
<feOffset dx="-1.01431" dy="0.760734"/>
<feGaussianBlur stdDeviation="0.507156"/>
<feComposite in2="hardAlpha" operator="out"/>
<feColorMatrix type="matrix" values="0 0 0 0 0.498039 0 0 0 0 0 0 0 0 0 1 0 0 0 0.15 0"/>
<feBlend mode="normal" in2="BackgroundImageFix" result="effect1_dropShadow_313_1503"/>
<feBlend mode="normal" in="SourceGraphic" in2="effect1_dropShadow_313_1503" result="shape"/>
</filter>
<filter id="filter1_d_313_1503" x="29.9714" y="62.7463" width="23.1607" height="22.0457" filterUnits="userSpaceOnUse" color-interpolation-filters="sRGB">
<feFlood flood-opacity="0" result="BackgroundImageFix"/>
<feColorMatrix in="SourceAlpha" type="matrix" values="0 0 0 0 0 0 0 0 0 0 0 0 0 0 0 0 0 0 127 0" result="hardAlpha"/>
<feOffset dx="-1.01431" dy="0.760734"/>
<feGaussianBlur stdDeviation="0.507156"/>
<feComposite in2="hardAlpha" operator="out"/>
<feColorMatrix type="matrix" values="0 0 0 0 0.498039 0 0 0 0 0 0 0 0 0 1 0 0 0 0.15 0"/>
<feBlend mode="normal" in2="BackgroundImageFix" result="effect1_dropShadow_313_1503"/>
<feBlend mode="normal" in="SourceGraphic" in2="effect1_dropShadow_313_1503" result="shape"/>
</filter>
</defs>
</svg>
